# xmcd CD database file
#
# Track frame offsets:
#	150
#	15659
#	28443
#	41684
#	57022
#	70036
#	89168
#	104461
#	124649
#	139956
#
# Disc length: 2064 seconds
#
# Revision: 0
# Processed by: cddbd v1.5.2PL0 Copyright (c) Steve Scherf et al.
# Submitted via: CDex 1.70
#
DISCID=8e080e0a
DTITLE=Thomas Micheal Riley - Get Back Up and Ride
DYEAR=1900
DGENRE=Country
TTITLE0=Lucky I'm Not Dead
TTITLE1=Get Back Up And Ride
TTITLE2=Feel Rich
TTITLE3=Boys From Luckenbach
TTITLE4=Driving Me To Hell
TTITLE5=Midnight-Train To Memphis
TTITLE6=In Jail
TTITLE7=Happiness
TTITLE8=Copperhead Watch
TTITLE9=El Paso To Beaumont
EXTD=
EXTT0=
EXTT1=
EXTT2=
EXTT3=
EXTT4=
EXTT5=
EXTT6=
EXTT7=
EXTT8=
EXTT9=
PLAYORDER=
